<svg width="18" height="14" viewBox="0 0 18 14" fill="none" xmlns="http://www.w3.org/2000/svg">
<path d="M4.03393e-05 6.99089C4.03393e-05 6.69089 0.11404 6.40789 0.33304 6.18789L6.23304 0.288892C6.32591 0.195916 6.4362 0.122157 6.5576 0.0718327C6.679 0.0215084 6.80912 -0.00439453 6.94054 -0.00439453C7.07196 -0.00439453 7.20208 0.0215084 7.32348 0.0718327C7.44488 0.122157 7.55517 0.195916 7.64804 0.288892L8.00004 0.642892C8.18751 0.83042 8.29283 1.08473 8.29283 1.34989C8.29283 1.61506 8.18751 1.86936 8.00004 2.05689L4.30804 5.74989H16.495C16.7603 5.74989 17.0146 5.85525 17.2021 6.04279C17.3897 6.23032 17.495 6.48468 17.495 6.74989V7.24989C17.495 7.51511 17.3897 7.76946 17.2021 7.957C17.0146 8.14454 16.7603 8.24989 16.495 8.24989H4.30804L8.00004 11.9419C8.18751 12.1294 8.29283 12.3837 8.29283 12.6489C8.29283 12.9141 8.18751 13.1684 8.00004 13.3559L7.64704 13.7099C7.45951 13.8974 7.2052 14.0027 6.94004 14.0027C6.67488 14.0027 6.42057 13.8974 6.23304 13.7099L0.33304 7.80989C0.226248 7.7021 0.141843 7.57423 0.0846911 7.43367C0.0275391 7.29311 -0.00123053 7.14262 4.03393e-05 6.99089Z" fill="#191C1F"/>
</svg>
