<svg width="33" height="32" viewBox="0 0 33 32" fill="none" xmlns="http://www.w3.org/2000/svg">
<mask id="mask0_145_8654" style="mask-type:alpha" maskUnits="userSpaceOnUse" x="0" y="0" width="33" height="32">
<g clip-path="url(#clip0_145_8654)">
<path fill-rule="evenodd" clip-rule="evenodd" d="M15.5993 4.18431C15.8193 4.04973 16.0721 3.97852 16.33 3.97852C16.5879 3.97852 16.8407 4.04973 17.0607 4.18431L28.346 10.2176C28.5416 10.3327 28.7042 10.4962 28.8182 10.6923C28.9321 10.8885 28.9936 11.1108 28.9967 11.3376V12.0416C28.9967 12.491 28.8647 12.9483 28.346 12.9816C27.3313 13.0456 26.8353 13.4123 26.8353 14.475V22.975C26.8353 23.5776 27.298 24.0683 27.734 24.531L27.7673 24.567L27.7833 24.583C27.8687 24.6728 27.95 24.7621 28.0273 24.851C28.2247 25.0776 28.346 25.359 28.346 25.6643V27.351C28.346 27.7203 28.022 28.023 27.6207 28.023H5.03933C4.63933 28.023 4.314 27.7203 4.314 27.351V25.6656C4.314 25.359 4.434 25.0763 4.63266 24.851C4.71089 24.7621 4.79222 24.6728 4.87666 24.583L4.89266 24.567L4.926 24.5323C5.362 24.0696 5.82466 23.5776 5.82466 22.975V14.4736C5.82466 13.4123 5.32866 13.0456 4.314 12.9816C3.794 12.9496 3.66333 12.491 3.66333 12.0416V11.339C3.66616 11.1119 3.72753 10.8894 3.84152 10.6929C3.9555 10.4965 4.11824 10.3328 4.314 10.2176L15.5993 4.18431ZM10.2527 24.0176H13.4087C14.1447 24.0176 14.742 23.487 14.742 22.8323V14.583C14.742 13.9283 14.1447 13.3976 13.4087 13.3976H10.25C10.034 13.3976 9.83 13.4443 9.64866 13.5256C9.21533 13.7203 8.918 14.1216 8.918 14.583V22.8323C8.918 23.487 9.51533 24.0176 10.2527 24.0176ZM22.4073 24.0176H19.25C18.514 24.0176 17.9167 23.487 17.9167 22.8323V14.583C17.9167 14.1216 18.214 13.7203 18.6473 13.5256C18.8287 13.4443 19.034 13.3976 19.25 13.3976H22.4073C23.1433 13.3976 23.7407 13.9283 23.7407 14.583V22.8323C23.7407 23.487 23.1433 24.0176 22.4073 24.0176Z" fill="black"/>
</g>
</mask>
<g mask="url(#mask0_145_8654)">
<rect x="0.329956" width="32" height="32" fill="#191C1F"/>
</g>
<defs>
<clipPath id="clip0_145_8654">
<rect width="32" height="32" fill="white" transform="translate(0.329956)"/>
</clipPath>
</defs>
</svg>
