<svg width="32" height="32" viewBox="0 0 32 32" fill="none" xmlns="http://www.w3.org/2000/svg">
<mask id="mask0_145_8623" style="mask-type:alpha" maskUnits="userSpaceOnUse" x="0" y="0" width="33" height="32">
<g clip-path="url(#clip0_145_8623)">
<path d="M15.7513 16.482C15.8793 16.2514 15.6367 15.946 15.3833 16.0194C14.5035 16.2727 13.5923 16.4006 12.6767 16.3993C9.92332 16.3993 7.46599 15.266 5.84999 13.4927C5.67666 13.3007 5.34332 13.422 5.34332 13.686V14.6527C5.34332 17.7833 8.62599 20.322 12.6767 20.322C13.2011 20.322 13.7095 20.2807 14.202 20.198C14.344 20.1709 14.4733 20.0983 14.5704 19.9913C14.6676 19.8843 14.7273 19.7486 14.7407 19.6047C14.878 18.4847 15.2287 17.4287 15.7513 16.482ZM15.0007 23.022C14.9613 22.8833 14.8723 22.764 14.7505 22.6868C14.6288 22.6096 14.4829 22.5799 14.3407 22.6033C13.8011 22.6967 13.2464 22.7434 12.6767 22.7434C9.92332 22.7434 7.46599 21.61 5.84999 19.8367C5.67666 19.6447 5.34332 19.7673 5.34332 20.03V20.9967C5.34332 24.1273 8.62599 26.666 12.6767 26.666C13.8567 26.666 14.97 26.45 15.958 26.0674C16.1967 25.9754 16.27 25.6807 16.1287 25.47C15.6273 24.7178 15.2467 23.8918 15.0007 23.022ZM20.01 8.33535C20.01 11.466 16.7273 14.0047 12.6767 14.0047C8.62599 14.0047 5.34332 11.466 5.34332 8.33535C5.34332 5.20468 8.62732 2.66602 12.6767 2.66602C16.726 2.66602 20.01 5.20468 20.01 8.33535ZM20.01 8.33535C20.01 11.466 16.7273 14.0047 12.6767 14.0047C8.62599 14.0047 5.34332 11.466 5.34332 8.33535C5.34332 5.20468 8.62732 2.66602 12.6767 2.66602C16.726 2.66602 20.01 5.20468 20.01 8.33535ZM20.01 8.33535C20.01 11.466 16.7273 14.0047 12.6767 14.0047C8.62599 14.0047 5.34332 11.466 5.34332 8.33535C5.34332 5.20468 8.62732 2.66602 12.6767 2.66602C16.726 2.66602 20.01 5.20468 20.01 8.33535ZM20.01 8.33535C20.01 11.466 16.7273 14.0047 12.6767 14.0047C8.62599 14.0047 5.34332 11.466 5.34332 8.33535C5.34332 5.20468 8.62732 2.66602 12.6767 2.66602C16.726 2.66602 20.01 5.20468 20.01 8.33535ZM20.01 8.33535C20.01 11.466 16.7273 14.0047 12.6767 14.0047C8.62599 14.0047 5.34332 11.466 5.34332 8.33535C5.34332 5.20468 8.62732 2.66602 12.6767 2.66602C16.726 2.66602 20.01 5.20468 20.01 8.33535ZM20.01 8.33535C20.01 11.466 16.7273 14.0047 12.6767 14.0047C8.62599 14.0047 5.34332 11.466 5.34332 8.33535C5.34332 5.20468 8.62732 2.66602 12.6767 2.66602C16.726 2.66602 20.01 5.20468 20.01 8.33535ZM20.01 8.33535C20.01 11.466 16.7273 14.0047 12.6767 14.0047C8.62599 14.0047 5.34332 11.466 5.34332 8.33535C5.34332 5.20468 8.62732 2.66602 12.6767 2.66602C16.726 2.66602 20.01 5.20468 20.01 8.33535ZM20.01 8.33535C20.01 11.466 16.7273 14.0047 12.6767 14.0047C8.62599 14.0047 5.34332 11.466 5.34332 8.33535C5.34332 5.20468 8.62732 2.66602 12.6767 2.66602C16.726 2.66602 20.01 5.20468 20.01 8.33535ZM20.01 8.33535C20.01 11.466 16.7273 14.0047 12.6767 14.0047C8.62599 14.0047 5.34332 11.466 5.34332 8.33535C5.34332 5.20468 8.62732 2.66602 12.6767 2.66602C16.726 2.66602 20.01 5.20468 20.01 8.33535ZM23.3433 26.666C24.9346 26.666 26.4607 26.0339 27.586 24.9087C28.7112 23.7834 29.3433 22.2573 29.3433 20.666C29.3433 19.0747 28.7112 17.5486 27.586 16.4234C26.4607 15.2982 24.9346 14.666 23.3433 14.666C21.752 14.666 20.2259 15.2982 19.1007 16.4234C17.9755 17.5486 17.3433 19.0747 17.3433 20.666C17.3433 22.2573 17.9755 23.7834 19.1007 24.9087C20.2259 26.0339 21.752 26.666 23.3433 26.666ZM21.042 22.898L24.5887 17.734C24.6842 17.5944 24.8306 17.4976 24.9965 17.4645C25.1625 17.4314 25.3348 17.4644 25.4767 17.5567C25.7687 17.75 25.8433 18.1433 25.6433 18.434L22.1007 23.5993C22.0049 23.7392 21.8581 23.8359 21.6919 23.8688C21.5257 23.9017 21.3531 23.8681 21.2113 23.7754C21.1422 23.7292 21.0829 23.6698 21.0369 23.6005C20.9909 23.5312 20.9592 23.4535 20.9436 23.3719C20.9279 23.2902 20.9287 23.2063 20.9458 23.1249C20.963 23.0436 20.9948 22.9664 21.042 22.898ZM22.4967 18.5833C22.4935 18.9176 22.3577 19.237 22.1192 19.4713C21.8807 19.7055 21.559 19.8355 21.2247 19.8327C20.8904 19.8355 20.5686 19.7055 20.3301 19.4713C20.0916 19.237 19.9558 18.9176 19.9527 18.5833C19.9527 17.8927 20.522 17.3327 21.2247 17.3327C21.9273 17.3327 22.4967 17.8927 22.4967 18.5833ZM25.4647 21.4993C26.1673 21.4993 26.7367 22.0593 26.7367 22.75C26.7335 23.0843 26.5977 23.4037 26.3592 23.6379C26.1207 23.8722 25.799 24.0022 25.4647 23.9993C25.1304 24.0022 24.8086 23.8722 24.5701 23.6379C24.3316 23.4037 24.1958 23.0843 24.1927 22.75C24.1927 22.0593 24.762 21.4993 25.4647 21.4993Z" fill="black"/>
<path d="M15.7513 16.482C15.8793 16.2514 15.6367 15.946 15.3833 16.0194C14.5035 16.2727 13.5923 16.4006 12.6767 16.3993C9.92332 16.3993 7.46599 15.266 5.84999 13.4927C5.67666 13.3007 5.34332 13.422 5.34332 13.686V14.6527C5.34332 17.7833 8.62599 20.322 12.6767 20.322C13.2011 20.322 13.7095 20.2807 14.202 20.198C14.344 20.1709 14.4733 20.0983 14.5704 19.9913C14.6676 19.8843 14.7273 19.7486 14.7407 19.6047C14.878 18.4847 15.2287 17.4287 15.7513 16.482ZM15.0007 23.022C14.9613 22.8833 14.8723 22.764 14.7505 22.6868C14.6288 22.6096 14.4829 22.5799 14.3407 22.6033C13.8011 22.6967 13.2464 22.7434 12.6767 22.7434C9.92332 22.7434 7.46599 21.61 5.84999 19.8367C5.67666 19.6447 5.34332 19.7673 5.34332 20.03V20.9967C5.34332 24.1273 8.62599 26.666 12.6767 26.666C13.8567 26.666 14.97 26.45 15.958 26.0674C16.1967 25.9754 16.27 25.6807 16.1287 25.47C15.6273 24.7178 15.2467 23.8918 15.0007 23.022ZM20.01 8.33535C20.01 11.466 16.7273 14.0047 12.6767 14.0047C8.62599 14.0047 5.34332 11.466 5.34332 8.33535C5.34332 5.20468 8.62732 2.66602 12.6767 2.66602C16.726 2.66602 20.01 5.20468 20.01 8.33535ZM20.01 8.33535C20.01 11.466 16.7273 14.0047 12.6767 14.0047C8.62599 14.0047 5.34332 11.466 5.34332 8.33535C5.34332 5.20468 8.62732 2.66602 12.6767 2.66602C16.726 2.66602 20.01 5.20468 20.01 8.33535ZM20.01 8.33535C20.01 11.466 16.7273 14.0047 12.6767 14.0047C8.62599 14.0047 5.34332 11.466 5.34332 8.33535C5.34332 5.20468 8.62732 2.66602 12.6767 2.66602C16.726 2.66602 20.01 5.20468 20.01 8.33535ZM20.01 8.33535C20.01 11.466 16.7273 14.0047 12.6767 14.0047C8.62599 14.0047 5.34332 11.466 5.34332 8.33535C5.34332 5.20468 8.62732 2.66602 12.6767 2.66602C16.726 2.66602 20.01 5.20468 20.01 8.33535ZM20.01 8.33535C20.01 11.466 16.7273 14.0047 12.6767 14.0047C8.62599 14.0047 5.34332 11.466 5.34332 8.33535C5.34332 5.20468 8.62732 2.66602 12.6767 2.66602C16.726 2.66602 20.01 5.20468 20.01 8.33535ZM20.01 8.33535C20.01 11.466 16.7273 14.0047 12.6767 14.0047C8.62599 14.0047 5.34332 11.466 5.34332 8.33535C5.34332 5.20468 8.62732 2.66602 12.6767 2.66602C16.726 2.66602 20.01 5.20468 20.01 8.33535ZM20.01 8.33535C20.01 11.466 16.7273 14.0047 12.6767 14.0047C8.62599 14.0047 5.34332 11.466 5.34332 8.33535C5.34332 5.20468 8.62732 2.66602 12.6767 2.66602C16.726 2.66602 20.01 5.20468 20.01 8.33535ZM20.01 8.33535C20.01 11.466 16.7273 14.0047 12.6767 14.0047C8.62599 14.0047 5.34332 11.466 5.34332 8.33535C5.34332 5.20468 8.62732 2.66602 12.6767 2.66602C16.726 2.66602 20.01 5.20468 20.01 8.33535ZM20.01 8.33535C20.01 11.466 16.7273 14.0047 12.6767 14.0047C8.62599 14.0047 5.34332 11.466 5.34332 8.33535C5.34332 5.20468 8.62732 2.66602 12.6767 2.66602C16.726 2.66602 20.01 5.20468 20.01 8.33535ZM23.3433 26.666C24.9346 26.666 26.4607 26.0339 27.586 24.9087C28.7112 23.7834 29.3433 22.2573 29.3433 20.666C29.3433 19.0747 28.7112 17.5486 27.586 16.4234C26.4607 15.2982 24.9346 14.666 23.3433 14.666C21.752 14.666 20.2259 15.2982 19.1007 16.4234C17.9755 17.5486 17.3433 19.0747 17.3433 20.666C17.3433 22.2573 17.9755 23.7834 19.1007 24.9087C20.2259 26.0339 21.752 26.666 23.3433 26.666ZM21.042 22.898L24.5887 17.734C24.6842 17.5944 24.8306 17.4976 24.9965 17.4645C25.1625 17.4314 25.3348 17.4644 25.4767 17.5567C25.7687 17.75 25.8433 18.1433 25.6433 18.434L22.1007 23.5993C22.0049 23.7392 21.8581 23.8359 21.6919 23.8688C21.5257 23.9017 21.3531 23.8681 21.2113 23.7754C21.1422 23.7292 21.0829 23.6698 21.0369 23.6005C20.9909 23.5312 20.9592 23.4535 20.9436 23.3719C20.9279 23.2902 20.9287 23.2063 20.9458 23.1249C20.963 23.0436 20.9948 22.9664 21.042 22.898ZM22.4967 18.5833C22.4935 18.9176 22.3577 19.237 22.1192 19.4713C21.8807 19.7055 21.559 19.8355 21.2247 19.8327C20.8904 19.8355 20.5686 19.7055 20.3301 19.4713C20.0916 19.237 19.9558 18.9176 19.9527 18.5833C19.9527 17.8927 20.522 17.3327 21.2247 17.3327C21.9273 17.3327 22.4967 17.8927 22.4967 18.5833ZM25.4647 21.4993C26.1673 21.4993 26.7367 22.0593 26.7367 22.75C26.7335 23.0843 26.5977 23.4037 26.3592 23.6379C26.1207 23.8722 25.799 24.0022 25.4647 23.9993C25.1304 24.0022 24.8086 23.8722 24.5701 23.6379C24.3316 23.4037 24.1958 23.0843 24.1927 22.75C24.1927 22.0593 24.762 21.4993 25.4647 21.4993Z" fill="black"/>
<path d="M15.7513 16.482C15.8793 16.2514 15.6367 15.946 15.3833 16.0194C14.5035 16.2727 13.5923 16.4006 12.6767 16.3993C9.92332 16.3993 7.46599 15.266 5.84999 13.4927C5.67666 13.3007 5.34332 13.422 5.34332 13.686V14.6527C5.34332 17.7833 8.62599 20.322 12.6767 20.322C13.2011 20.322 13.7095 20.2807 14.202 20.198C14.344 20.1709 14.4733 20.0983 14.5704 19.9913C14.6676 19.8843 14.7273 19.7486 14.7407 19.6047C14.878 18.4847 15.2287 17.4287 15.7513 16.482ZM15.0007 23.022C14.9613 22.8833 14.8723 22.764 14.7505 22.6868C14.6288 22.6096 14.4829 22.5799 14.3407 22.6033C13.8011 22.6967 13.2464 22.7434 12.6767 22.7434C9.92332 22.7434 7.46599 21.61 5.84999 19.8367C5.67666 19.6447 5.34332 19.7673 5.34332 20.03V20.9967C5.34332 24.1273 8.62599 26.666 12.6767 26.666C13.8567 26.666 14.97 26.45 15.958 26.0674C16.1967 25.9754 16.27 25.6807 16.1287 25.47C15.6273 24.7178 15.2467 23.8918 15.0007 23.022ZM20.01 8.33535C20.01 11.466 16.7273 14.0047 12.6767 14.0047C8.62599 14.0047 5.34332 11.466 5.34332 8.33535C5.34332 5.20468 8.62732 2.66602 12.6767 2.66602C16.726 2.66602 20.01 5.20468 20.01 8.33535ZM20.01 8.33535C20.01 11.466 16.7273 14.0047 12.6767 14.0047C8.62599 14.0047 5.34332 11.466 5.34332 8.33535C5.34332 5.20468 8.62732 2.66602 12.6767 2.66602C16.726 2.66602 20.01 5.20468 20.01 8.33535ZM20.01 8.33535C20.01 11.466 16.7273 14.0047 12.6767 14.0047C8.62599 14.0047 5.34332 11.466 5.34332 8.33535C5.34332 5.20468 8.62732 2.66602 12.6767 2.66602C16.726 2.66602 20.01 5.20468 20.01 8.33535ZM20.01 8.33535C20.01 11.466 16.7273 14.0047 12.6767 14.0047C8.62599 14.0047 5.34332 11.466 5.34332 8.33535C5.34332 5.20468 8.62732 2.66602 12.6767 2.66602C16.726 2.66602 20.01 5.20468 20.01 8.33535ZM20.01 8.33535C20.01 11.466 16.7273 14.0047 12.6767 14.0047C8.62599 14.0047 5.34332 11.466 5.34332 8.33535C5.34332 5.20468 8.62732 2.66602 12.6767 2.66602C16.726 2.66602 20.01 5.20468 20.01 8.33535ZM20.01 8.33535C20.01 11.466 16.7273 14.0047 12.6767 14.0047C8.62599 14.0047 5.34332 11.466 5.34332 8.33535C5.34332 5.20468 8.62732 2.66602 12.6767 2.66602C16.726 2.66602 20.01 5.20468 20.01 8.33535ZM20.01 8.33535C20.01 11.466 16.7273 14.0047 12.6767 14.0047C8.62599 14.0047 5.34332 11.466 5.34332 8.33535C5.34332 5.20468 8.62732 2.66602 12.6767 2.66602C16.726 2.66602 20.01 5.20468 20.01 8.33535ZM20.01 8.33535C20.01 11.466 16.7273 14.0047 12.6767 14.0047C8.62599 14.0047 5.34332 11.466 5.34332 8.33535C5.34332 5.20468 8.62732 2.66602 12.6767 2.66602C16.726 2.66602 20.01 5.20468 20.01 8.33535ZM20.01 8.33535C20.01 11.466 16.7273 14.0047 12.6767 14.0047C8.62599 14.0047 5.34332 11.466 5.34332 8.33535C5.34332 5.20468 8.62732 2.66602 12.6767 2.66602C16.726 2.66602 20.01 5.20468 20.01 8.33535ZM23.3433 26.666C24.9346 26.666 26.4607 26.0339 27.586 24.9087C28.7112 23.7834 29.3433 22.2573 29.3433 20.666C29.3433 19.0747 28.7112 17.5486 27.586 16.4234C26.4607 15.2982 24.9346 14.666 23.3433 14.666C21.752 14.666 20.2259 15.2982 19.1007 16.4234C17.9755 17.5486 17.3433 19.0747 17.3433 20.666C17.3433 22.2573 17.9755 23.7834 19.1007 24.9087C20.2259 26.0339 21.752 26.666 23.3433 26.666ZM21.042 22.898L24.5887 17.734C24.6842 17.5944 24.8306 17.4976 24.9965 17.4645C25.1625 17.4314 25.3348 17.4644 25.4767 17.5567C25.7687 17.75 25.8433 18.1433 25.6433 18.434L22.1007 23.5993C22.0049 23.7392 21.8581 23.8359 21.6919 23.8688C21.5257 23.9017 21.3531 23.8681 21.2113 23.7754C21.1422 23.7292 21.0829 23.6698 21.0369 23.6005C20.9909 23.5312 20.9592 23.4535 20.9436 23.3719C20.9279 23.2902 20.9287 23.2063 20.9458 23.1249C20.963 23.0436 20.9948 22.9664 21.042 22.898ZM22.4967 18.5833C22.4935 18.9176 22.3577 19.237 22.1192 19.4713C21.8807 19.7055 21.559 19.8355 21.2247 19.8327C20.8904 19.8355 20.5686 19.7055 20.3301 19.4713C20.0916 19.237 19.9558 18.9176 19.9527 18.5833C19.9527 17.8927 20.522 17.3327 21.2247 17.3327C21.9273 17.3327 22.4967 17.8927 22.4967 18.5833ZM25.4647 21.4993C26.1673 21.4993 26.7367 22.0593 26.7367 22.75C26.7335 23.0843 26.5977 23.4037 26.3592 23.6379C26.1207 23.8722 25.799 24.0022 25.4647 23.9993C25.1304 24.0022 24.8086 23.8722 24.5701 23.6379C24.3316 23.4037 24.1958 23.0843 24.1927 22.75C24.1927 22.0593 24.762 21.4993 25.4647 21.4993Z" fill="black"/>
<path d="M15.7513 16.482C15.8793 16.2514 15.6367 15.946 15.3833 16.0194C14.5035 16.2727 13.5923 16.4006 12.6767 16.3993C9.92332 16.3993 7.46599 15.266 5.84999 13.4927C5.67666 13.3007 5.34332 13.422 5.34332 13.686V14.6527C5.34332 17.7833 8.62599 20.322 12.6767 20.322C13.2011 20.322 13.7095 20.2807 14.202 20.198C14.344 20.1709 14.4733 20.0983 14.5704 19.9913C14.6676 19.8843 14.7273 19.7486 14.7407 19.6047C14.878 18.4847 15.2287 17.4287 15.7513 16.482ZM15.0007 23.022C14.9613 22.8833 14.8723 22.764 14.7505 22.6868C14.6288 22.6096 14.4829 22.5799 14.3407 22.6033C13.8011 22.6967 13.2464 22.7434 12.6767 22.7434C9.92332 22.7434 7.46599 21.61 5.84999 19.8367C5.67666 19.6447 5.34332 19.7673 5.34332 20.03V20.9967C5.34332 24.1273 8.62599 26.666 12.6767 26.666C13.8567 26.666 14.97 26.45 15.958 26.0674C16.1967 25.9754 16.27 25.6807 16.1287 25.47C15.6273 24.7178 15.2467 23.8918 15.0007 23.022ZM20.01 8.33535C20.01 11.466 16.7273 14.0047 12.6767 14.0047C8.62599 14.0047 5.34332 11.466 5.34332 8.33535C5.34332 5.20468 8.62732 2.66602 12.6767 2.66602C16.726 2.66602 20.01 5.20468 20.01 8.33535ZM20.01 8.33535C20.01 11.466 16.7273 14.0047 12.6767 14.0047C8.62599 14.0047 5.34332 11.466 5.34332 8.33535C5.34332 5.20468 8.62732 2.66602 12.6767 2.66602C16.726 2.66602 20.01 5.20468 20.01 8.33535ZM20.01 8.33535C20.01 11.466 16.7273 14.0047 12.6767 14.0047C8.62599 14.0047 5.34332 11.466 5.34332 8.33535C5.34332 5.20468 8.62732 2.66602 12.6767 2.66602C16.726 2.66602 20.01 5.20468 20.01 8.33535ZM20.01 8.33535C20.01 11.466 16.7273 14.0047 12.6767 14.0047C8.62599 14.0047 5.34332 11.466 5.34332 8.33535C5.34332 5.20468 8.62732 2.66602 12.6767 2.66602C16.726 2.66602 20.01 5.20468 20.01 8.33535ZM20.01 8.33535C20.01 11.466 16.7273 14.0047 12.6767 14.0047C8.62599 14.0047 5.34332 11.466 5.34332 8.33535C5.34332 5.20468 8.62732 2.66602 12.6767 2.66602C16.726 2.66602 20.01 5.20468 20.01 8.33535ZM20.01 8.33535C20.01 11.466 16.7273 14.0047 12.6767 14.0047C8.62599 14.0047 5.34332 11.466 5.34332 8.33535C5.34332 5.20468 8.62732 2.66602 12.6767 2.66602C16.726 2.66602 20.01 5.20468 20.01 8.33535ZM20.01 8.33535C20.01 11.466 16.7273 14.0047 12.6767 14.0047C8.62599 14.0047 5.34332 11.466 5.34332 8.33535C5.34332 5.20468 8.62732 2.66602 12.6767 2.66602C16.726 2.66602 20.01 5.20468 20.01 8.33535ZM20.01 8.33535C20.01 11.466 16.7273 14.0047 12.6767 14.0047C8.62599 14.0047 5.34332 11.466 5.34332 8.33535C5.34332 5.20468 8.62732 2.66602 12.6767 2.66602C16.726 2.66602 20.01 5.20468 20.01 8.33535ZM20.01 8.33535C20.01 11.466 16.7273 14.0047 12.6767 14.0047C8.62599 14.0047 5.34332 11.466 5.34332 8.33535C5.34332 5.20468 8.62732 2.66602 12.6767 2.66602C16.726 2.66602 20.01 5.20468 20.01 8.33535ZM23.3433 26.666C24.9346 26.666 26.4607 26.0339 27.586 24.9087C28.7112 23.7834 29.3433 22.2573 29.3433 20.666C29.3433 19.0747 28.7112 17.5486 27.586 16.4234C26.4607 15.2982 24.9346 14.666 23.3433 14.666C21.752 14.666 20.2259 15.2982 19.1007 16.4234C17.9755 17.5486 17.3433 19.0747 17.3433 20.666C17.3433 22.2573 17.9755 23.7834 19.1007 24.9087C20.2259 26.0339 21.752 26.666 23.3433 26.666ZM21.042 22.898L24.5887 17.734C24.6842 17.5944 24.8306 17.4976 24.9965 17.4645C25.1625 17.4314 25.3348 17.4644 25.4767 17.5567C25.7687 17.75 25.8433 18.1433 25.6433 18.434L22.1007 23.5993C22.0049 23.7392 21.8581 23.8359 21.6919 23.8688C21.5257 23.9017 21.3531 23.8681 21.2113 23.7754C21.1422 23.7292 21.0829 23.6698 21.0369 23.6005C20.9909 23.5312 20.9592 23.4535 20.9436 23.3719C20.9279 23.2902 20.9287 23.2063 20.9458 23.1249C20.963 23.0436 20.9948 22.9664 21.042 22.898ZM22.4967 18.5833C22.4935 18.9176 22.3577 19.237 22.1192 19.4713C21.8807 19.7055 21.559 19.8355 21.2247 19.8327C20.8904 19.8355 20.5686 19.7055 20.3301 19.4713C20.0916 19.237 19.9558 18.9176 19.9527 18.5833C19.9527 17.8927 20.522 17.3327 21.2247 17.3327C21.9273 17.3327 22.4967 17.8927 22.4967 18.5833ZM25.4647 21.4993C26.1673 21.4993 26.7367 22.0593 26.7367 22.75C26.7335 23.0843 26.5977 23.4037 26.3592 23.6379C26.1207 23.8722 25.799 24.0022 25.4647 23.9993C25.1304 24.0022 24.8086 23.8722 24.5701 23.6379C24.3316 23.4037 24.1958 23.0843 24.1927 22.75C24.1927 22.0593 24.762 21.4993 25.4647 21.4993Z" fill="black"/>
<path d="M15.7513 16.482C15.8793 16.2514 15.6367 15.946 15.3833 16.0194C14.5035 16.2727 13.5923 16.4006 12.6767 16.3993C9.92332 16.3993 7.46599 15.266 5.84999 13.4927C5.67666 13.3007 5.34332 13.422 5.34332 13.686V14.6527C5.34332 17.7833 8.62599 20.322 12.6767 20.322C13.2011 20.322 13.7095 20.2807 14.202 20.198C14.344 20.1709 14.4733 20.0983 14.5704 19.9913C14.6676 19.8843 14.7273 19.7486 14.7407 19.6047C14.878 18.4847 15.2287 17.4287 15.7513 16.482ZM15.0007 23.022C14.9613 22.8833 14.8723 22.764 14.7505 22.6868C14.6288 22.6096 14.4829 22.5799 14.3407 22.6033C13.8011 22.6967 13.2464 22.7434 12.6767 22.7434C9.92332 22.7434 7.46599 21.61 5.84999 19.8367C5.67666 19.6447 5.34332 19.7673 5.34332 20.03V20.9967C5.34332 24.1273 8.62599 26.666 12.6767 26.666C13.8567 26.666 14.97 26.45 15.958 26.0674C16.1967 25.9754 16.27 25.6807 16.1287 25.47C15.6273 24.7178 15.2467 23.8918 15.0007 23.022ZM20.01 8.33535C20.01 11.466 16.7273 14.0047 12.6767 14.0047C8.62599 14.0047 5.34332 11.466 5.34332 8.33535C5.34332 5.20468 8.62732 2.66602 12.6767 2.66602C16.726 2.66602 20.01 5.20468 20.01 8.33535ZM20.01 8.33535C20.01 11.466 16.7273 14.0047 12.6767 14.0047C8.62599 14.0047 5.34332 11.466 5.34332 8.33535C5.34332 5.20468 8.62732 2.66602 12.6767 2.66602C16.726 2.66602 20.01 5.20468 20.01 8.33535ZM20.01 8.33535C20.01 11.466 16.7273 14.0047 12.6767 14.0047C8.62599 14.0047 5.34332 11.466 5.34332 8.33535C5.34332 5.20468 8.62732 2.66602 12.6767 2.66602C16.726 2.66602 20.01 5.20468 20.01 8.33535ZM20.01 8.33535C20.01 11.466 16.7273 14.0047 12.6767 14.0047C8.62599 14.0047 5.34332 11.466 5.34332 8.33535C5.34332 5.20468 8.62732 2.66602 12.6767 2.66602C16.726 2.66602 20.01 5.20468 20.01 8.33535ZM20.01 8.33535C20.01 11.466 16.7273 14.0047 12.6767 14.0047C8.62599 14.0047 5.34332 11.466 5.34332 8.33535C5.34332 5.20468 8.62732 2.66602 12.6767 2.66602C16.726 2.66602 20.01 5.20468 20.01 8.33535ZM20.01 8.33535C20.01 11.466 16.7273 14.0047 12.6767 14.0047C8.62599 14.0047 5.34332 11.466 5.34332 8.33535C5.34332 5.20468 8.62732 2.66602 12.6767 2.66602C16.726 2.66602 20.01 5.20468 20.01 8.33535ZM20.01 8.33535C20.01 11.466 16.7273 14.0047 12.6767 14.0047C8.62599 14.0047 5.34332 11.466 5.34332 8.33535C5.34332 5.20468 8.62732 2.66602 12.6767 2.66602C16.726 2.66602 20.01 5.20468 20.01 8.33535ZM20.01 8.33535C20.01 11.466 16.7273 14.0047 12.6767 14.0047C8.62599 14.0047 5.34332 11.466 5.34332 8.33535C5.34332 5.20468 8.62732 2.66602 12.6767 2.66602C16.726 2.66602 20.01 5.20468 20.01 8.33535ZM20.01 8.33535C20.01 11.466 16.7273 14.0047 12.6767 14.0047C8.62599 14.0047 5.34332 11.466 5.34332 8.33535C5.34332 5.20468 8.62732 2.66602 12.6767 2.66602C16.726 2.66602 20.01 5.20468 20.01 8.33535ZM23.3433 26.666C24.9346 26.666 26.4607 26.0339 27.586 24.9087C28.7112 23.7834 29.3433 22.2573 29.3433 20.666C29.3433 19.0747 28.7112 17.5486 27.586 16.4234C26.4607 15.2982 24.9346 14.666 23.3433 14.666C21.752 14.666 20.2259 15.2982 19.1007 16.4234C17.9755 17.5486 17.3433 19.0747 17.3433 20.666C17.3433 22.2573 17.9755 23.7834 19.1007 24.9087C20.2259 26.0339 21.752 26.666 23.3433 26.666ZM21.042 22.898L24.5887 17.734C24.6842 17.5944 24.8306 17.4976 24.9965 17.4645C25.1625 17.4314 25.3348 17.4644 25.4767 17.5567C25.7687 17.75 25.8433 18.1433 25.6433 18.434L22.1007 23.5993C22.0049 23.7392 21.8581 23.8359 21.6919 23.8688C21.5257 23.9017 21.3531 23.8681 21.2113 23.7754C21.1422 23.7292 21.0829 23.6698 21.0369 23.6005C20.9909 23.5312 20.9592 23.4535 20.9436 23.3719C20.9279 23.2902 20.9287 23.2063 20.9458 23.1249C20.963 23.0436 20.9948 22.9664 21.042 22.898ZM22.4967 18.5833C22.4935 18.9176 22.3577 19.237 22.1192 19.4713C21.8807 19.7055 21.559 19.8355 21.2247 19.8327C20.8904 19.8355 20.5686 19.7055 20.3301 19.4713C20.0916 19.237 19.9558 18.9176 19.9527 18.5833C19.9527 17.8927 20.522 17.3327 21.2247 17.3327C21.9273 17.3327 22.4967 17.8927 22.4967 18.5833ZM25.4647 21.4993C26.1673 21.4993 26.7367 22.0593 26.7367 22.75C26.7335 23.0843 26.5977 23.4037 26.3592 23.6379C26.1207 23.8722 25.799 24.0022 25.4647 23.9993C25.1304 24.0022 24.8086 23.8722 24.5701 23.6379C24.3316 23.4037 24.1958 23.0843 24.1927 22.75C24.1927 22.0593 24.762 21.4993 25.4647 21.4993Z" fill="black"/>
<path d="M15.7513 16.482C15.8793 16.2514 15.6367 15.946 15.3833 16.0194C14.5035 16.2727 13.5923 16.4006 12.6767 16.3993C9.92332 16.3993 7.46599 15.266 5.84999 13.4927C5.67666 13.3007 5.34332 13.422 5.34332 13.686V14.6527C5.34332 17.7833 8.62599 20.322 12.6767 20.322C13.2011 20.322 13.7095 20.2807 14.202 20.198C14.344 20.1709 14.4733 20.0983 14.5704 19.9913C14.6676 19.8843 14.7273 19.7486 14.7407 19.6047C14.878 18.4847 15.2287 17.4287 15.7513 16.482ZM15.0007 23.022C14.9613 22.8833 14.8723 22.764 14.7505 22.6868C14.6288 22.6096 14.4829 22.5799 14.3407 22.6033C13.8011 22.6967 13.2464 22.7434 12.6767 22.7434C9.92332 22.7434 7.46599 21.61 5.84999 19.8367C5.67666 19.6447 5.34332 19.7673 5.34332 20.03V20.9967C5.34332 24.1273 8.62599 26.666 12.6767 26.666C13.8567 26.666 14.97 26.45 15.958 26.0674C16.1967 25.9754 16.27 25.6807 16.1287 25.47C15.6273 24.7178 15.2467 23.8918 15.0007 23.022ZM20.01 8.33535C20.01 11.466 16.7273 14.0047 12.6767 14.0047C8.62599 14.0047 5.34332 11.466 5.34332 8.33535C5.34332 5.20468 8.62732 2.66602 12.6767 2.66602C16.726 2.66602 20.01 5.20468 20.01 8.33535ZM20.01 8.33535C20.01 11.466 16.7273 14.0047 12.6767 14.0047C8.62599 14.0047 5.34332 11.466 5.34332 8.33535C5.34332 5.20468 8.62732 2.66602 12.6767 2.66602C16.726 2.66602 20.01 5.20468 20.01 8.33535ZM20.01 8.33535C20.01 11.466 16.7273 14.0047 12.6767 14.0047C8.62599 14.0047 5.34332 11.466 5.34332 8.33535C5.34332 5.20468 8.62732 2.66602 12.6767 2.66602C16.726 2.66602 20.01 5.20468 20.01 8.33535ZM20.01 8.33535C20.01 11.466 16.7273 14.0047 12.6767 14.0047C8.62599 14.0047 5.34332 11.466 5.34332 8.33535C5.34332 5.20468 8.62732 2.66602 12.6767 2.66602C16.726 2.66602 20.01 5.20468 20.01 8.33535ZM20.01 8.33535C20.01 11.466 16.7273 14.0047 12.6767 14.0047C8.62599 14.0047 5.34332 11.466 5.34332 8.33535C5.34332 5.20468 8.62732 2.66602 12.6767 2.66602C16.726 2.66602 20.01 5.20468 20.01 8.33535ZM20.01 8.33535C20.01 11.466 16.7273 14.0047 12.6767 14.0047C8.62599 14.0047 5.34332 11.466 5.34332 8.33535C5.34332 5.20468 8.62732 2.66602 12.6767 2.66602C16.726 2.66602 20.01 5.20468 20.01 8.33535ZM20.01 8.33535C20.01 11.466 16.7273 14.0047 12.6767 14.0047C8.62599 14.0047 5.34332 11.466 5.34332 8.33535C5.34332 5.20468 8.62732 2.66602 12.6767 2.66602C16.726 2.66602 20.01 5.20468 20.01 8.33535ZM20.01 8.33535C20.01 11.466 16.7273 14.0047 12.6767 14.0047C8.62599 14.0047 5.34332 11.466 5.34332 8.33535C5.34332 5.20468 8.62732 2.66602 12.6767 2.66602C16.726 2.66602 20.01 5.20468 20.01 8.33535ZM20.01 8.33535C20.01 11.466 16.7273 14.0047 12.6767 14.0047C8.62599 14.0047 5.34332 11.466 5.34332 8.33535C5.34332 5.20468 8.62732 2.66602 12.6767 2.66602C16.726 2.66602 20.01 5.20468 20.01 8.33535ZM23.3433 26.666C24.9346 26.666 26.4607 26.0339 27.586 24.9087C28.7112 23.7834 29.3433 22.2573 29.3433 20.666C29.3433 19.0747 28.7112 17.5486 27.586 16.4234C26.4607 15.2982 24.9346 14.666 23.3433 14.666C21.752 14.666 20.2259 15.2982 19.1007 16.4234C17.9755 17.5486 17.3433 19.0747 17.3433 20.666C17.3433 22.2573 17.9755 23.7834 19.1007 24.9087C20.2259 26.0339 21.752 26.666 23.3433 26.666ZM21.042 22.898L24.5887 17.734C24.6842 17.5944 24.8306 17.4976 24.9965 17.4645C25.1625 17.4314 25.3348 17.4644 25.4767 17.5567C25.7687 17.75 25.8433 18.1433 25.6433 18.434L22.1007 23.5993C22.0049 23.7392 21.8581 23.8359 21.6919 23.8688C21.5257 23.9017 21.3531 23.8681 21.2113 23.7754C21.1422 23.7292 21.0829 23.6698 21.0369 23.6005C20.9909 23.5312 20.9592 23.4535 20.9436 23.3719C20.9279 23.2902 20.9287 23.2063 20.9458 23.1249C20.963 23.0436 20.9948 22.9664 21.042 22.898ZM22.4967 18.5833C22.4935 18.9176 22.3577 19.237 22.1192 19.4713C21.8807 19.7055 21.559 19.8355 21.2247 19.8327C20.8904 19.8355 20.5686 19.7055 20.3301 19.4713C20.0916 19.237 19.9558 18.9176 19.9527 18.5833C19.9527 17.8927 20.522 17.3327 21.2247 17.3327C21.9273 17.3327 22.4967 17.8927 22.4967 18.5833ZM25.4647 21.4993C26.1673 21.4993 26.7367 22.0593 26.7367 22.75C26.7335 23.0843 26.5977 23.4037 26.3592 23.6379C26.1207 23.8722 25.799 24.0022 25.4647 23.9993C25.1304 24.0022 24.8086 23.8722 24.5701 23.6379C24.3316 23.4037 24.1958 23.0843 24.1927 22.75C24.1927 22.0593 24.762 21.4993 25.4647 21.4993Z" fill="black"/>
</g>
</mask>
<g mask="url(#mask0_145_8623)">
<rect x="0.0100098" width="32" height="32" fill="#191C1F"/>
</g>
<defs>
<clipPath id="clip0_145_8623">
<rect width="32" height="32" fill="white" transform="translate(0.0100098)"/>
</clipPath>
</defs>
</svg>
