<svg width="32" height="32" viewBox="0 0 32 32" fill="none" xmlns="http://www.w3.org/2000/svg">
<mask id="mask0_145_2905" style="mask-type:alpha" maskUnits="userSpaceOnUse" x="0" y="0" width="32" height="32">
<g clip-path="url(#clip0_145_2905)">
<path fill-rule="evenodd" clip-rule="evenodd" d="M16 28.6673C19.3594 28.6673 22.5813 27.3328 24.9567 24.9573C27.3322 22.5819 28.6667 19.3601 28.6667 16.0007C28.6667 12.6412 27.3322 9.41943 24.9567 7.04397C22.5813 4.6685 19.3594 3.33398 16 3.33398C12.6406 3.33398 9.41882 4.6685 7.04335 7.04397C4.66789 9.41943 3.33337 12.6412 3.33337 16.0007C3.33337 19.3601 4.66789 22.5819 7.04335 24.9573C9.41882 27.3328 12.6406 28.6673 16 28.6673ZM17.796 10.8713V14.2047H21.1294C21.992 14.2047 22.692 14.834 22.692 15.6113V16.39C22.692 17.1673 21.992 17.7967 21.1294 17.7967H17.796V21.13C17.796 21.9927 17.1667 22.6926 16.3894 22.6926H15.6107C14.8334 22.6926 14.204 21.9927 14.204 21.13V17.7967H10.8707C10.008 17.7967 9.30804 17.1673 9.30804 16.39V15.6113C9.30804 14.834 10.008 14.2047 10.8707 14.2047H14.204V10.8713C14.204 10.0087 14.8334 9.30865 15.6107 9.30865H16.3894C17.1667 9.30865 17.796 10.0087 17.796 10.8713Z" fill="black"/>
</g>
</mask>
<g mask="url(#mask0_145_2905)">
<rect width="32" height="32" fill="#191C1F"/>
</g>
<defs>
<clipPath id="clip0_145_2905">
<rect width="32" height="32" fill="white"/>
</clipPath>
</defs>
</svg>
