<svg width="33" height="32" viewBox="0 0 33 32" fill="none" xmlns="http://www.w3.org/2000/svg">
<mask id="mask0_145_8641" style="mask-type:alpha" maskUnits="userSpaceOnUse" x="0" y="0" width="33" height="32">
<g clip-path="url(#clip0_145_8641)">
<path d="M24.0299 23C28.2259 23 31.0032 20 31.0032 15.984C31.0032 11.984 28.2779 9.03333 24.0645 9.03333C21.3179 9.03333 19.1365 10.316 16.7139 13.3667C14.1899 10.2493 12.0592 9 9.32988 9C5.13521 9 2.33655 11.984 2.33655 16.016C2.33655 20.0333 5.10055 22.9667 9.29655 22.9667C12.0245 22.9667 14.1565 21.7173 16.6459 18.6333C19.2552 21.7667 21.3512 23 24.0299 23ZM9.51921 12.484C10.9725 12.484 12.1459 13.1933 13.8832 15.1747C14.2912 15.6413 14.3032 16.3347 13.9059 16.8093C12.2912 18.7333 11.0259 19.5 9.51921 19.5C7.42055 19.5 5.83521 18 5.83521 16C5.83521 14 7.42188 12.484 9.51921 12.484ZM27.5285 15.984C27.5285 17.984 25.9419 19.5 23.8445 19.5C22.4032 19.5 21.2445 18.8133 19.4805 16.82C19.2815 16.5967 19.1689 16.3096 19.163 16.0106C19.1571 15.7115 19.2584 15.4202 19.4485 15.1893C21.0459 13.2627 22.3419 12.4827 23.8619 12.4827C25.9592 12.4827 27.5285 13.984 27.5285 15.984Z" fill="black"/>
</g>
</mask>
<g mask="url(#mask0_145_8641)">
<rect x="0.669922" width="32" height="32" fill="#191C1F"/>
</g>
<defs>
<clipPath id="clip0_145_8641">
<rect width="32" height="32" fill="white" transform="translate(0.669922)"/>
</clipPath>
</defs>
</svg>
