<svg width="33" height="32" viewBox="0 0 33 32" fill="none" xmlns="http://www.w3.org/2000/svg">
<mask id="mask0_145_2763" style="mask-type:alpha" maskUnits="userSpaceOnUse" x="0" y="0" width="33" height="32">
<g clip-path="url(#clip0_145_2763)">
<path fill-rule="evenodd" clip-rule="evenodd" d="M4.93663 5.3017C4.49796 6.01637 4.26596 6.85237 4.1433 7.96837C4.05663 8.74437 4.0233 9.65503 4.0113 10.755C4.00596 11.4377 4.0033 12.2008 4.0033 13.0444V16.843C4.0033 18.595 4.0033 19.9777 4.07396 21.1057C4.16996 22.6444 4.39796 23.7057 4.93663 24.5857C5.4593 25.439 6.17663 26.155 7.0273 26.6777C7.11707 26.731 7.20996 26.783 7.30596 26.8337C7.41441 26.8897 7.52641 26.9417 7.64196 26.9897C7.82685 27.0688 8.02152 27.1377 8.22596 27.1964V28.3137C8.22596 28.4984 8.26235 28.6813 8.33304 28.852C8.40373 29.0227 8.50734 29.1777 8.63797 29.3084C8.76859 29.439 8.92366 29.5426 9.09432 29.6133C9.26499 29.684 9.4479 29.7204 9.63263 29.7204C9.81736 29.7204 10.0003 29.684 10.1709 29.6133C10.3416 29.5426 10.4967 29.439 10.6273 29.3084C10.7579 29.1777 10.8615 29.0227 10.9322 28.852C11.0029 28.6813 11.0393 28.4984 11.0393 28.3137C11.0393 27.907 11.3793 27.5804 11.786 27.591C12.0846 27.5973 12.3984 27.6017 12.7273 27.6044C13.3451 27.6088 14.0255 27.6106 14.7686 27.6097H18.57C19.7113 27.6097 20.6953 27.6097 21.554 27.591C21.6507 27.5884 21.747 27.6051 21.8373 27.6401C21.9275 27.6752 22.0098 27.728 22.0793 27.7953C22.1489 27.8626 22.2043 27.9431 22.2423 28.0322C22.2803 28.1212 22.3001 28.2169 22.3006 28.3137C22.3006 28.6868 22.4488 29.0446 22.7126 29.3084C22.9764 29.5722 23.3342 29.7204 23.7073 29.7204C24.0804 29.7204 24.4382 29.5722 24.702 29.3084C24.9658 29.0446 25.114 28.6868 25.114 28.3137V27.1964C25.5348 27.0769 25.9379 26.9021 26.3126 26.6764C27.1646 26.1546 27.8809 25.4386 28.4033 24.587C29.3366 23.063 29.3366 20.9897 29.3366 16.843V13.043C29.3366 8.89637 29.3366 6.82303 28.4033 5.30037C27.8811 4.44829 27.1647 3.73188 26.3126 3.2097C24.79 2.27637 22.7166 2.27637 18.57 2.27637H14.77C10.6233 2.27637 8.54996 2.27637 7.0273 3.2097C6.17507 3.73226 5.45865 4.44914 4.93663 5.3017ZM23.7073 14.9444C23.7073 13.078 22.9659 11.288 21.6461 9.96822C20.3264 8.64847 18.5364 7.90703 16.67 7.90703C14.8035 7.90703 13.0136 8.64847 11.6938 9.96822C10.3741 11.288 9.63263 13.078 9.63263 14.9444C9.63263 16.8108 10.3741 18.6008 11.6938 19.9205C13.0136 21.2403 14.8035 21.9817 16.67 21.9817C18.5364 21.9817 20.3264 21.2403 21.6461 19.9205C22.9659 18.6008 23.7073 16.8108 23.7073 14.9444ZM20.1246 14.9444C20.1337 15.4038 20.051 15.8605 19.8814 16.2876C19.7118 16.7147 19.4587 17.1038 19.1369 17.4319C18.8152 17.76 18.4312 18.0207 18.0075 18.1986C17.5838 18.3766 17.1289 18.4682 16.6693 18.4682C16.2097 18.4682 15.7548 18.3766 15.3311 18.1986C14.9074 18.0207 14.5234 17.76 14.2017 17.4319C13.8799 17.1038 13.6268 16.7147 13.4572 16.2876C13.2876 15.8605 13.2049 15.4038 13.214 14.9444C13.2317 14.0397 13.6036 13.1781 14.2497 12.5446C14.8957 11.9111 15.7645 11.5562 16.6693 11.5562C17.5741 11.5562 18.4429 11.9111 19.0889 12.5446C19.735 13.1781 20.1069 14.0397 20.1246 14.9444Z" fill="black"/>
</g>
</mask>
<g mask="url(#mask0_145_2763)">
<rect x="0.669922" width="32" height="32" fill="#191C1F"/>
</g>
<defs>
<clipPath id="clip0_145_2763">
<rect width="32" height="32" fill="white" transform="translate(0.669922)"/>
</clipPath>
</defs>
</svg>
