<svg width="32" height="32" viewBox="0 0 32 32" fill="none" xmlns="http://www.w3.org/2000/svg">
<path d="M12.0807 9.92285H7.60999V28.0002H12.0807V9.92285Z" fill="black"/>
<path d="M19.49 17.9067C23.1527 17.7227 26.1007 14.6453 26.1007 10.9573C26.0978 9.11185 25.363 7.34285 24.0574 6.03852C22.7518 4.73419 20.9821 4.00106 19.1367 4H7.60999V7.86H18.5887C20.326 7.86 21.766 9.22533 21.7967 10.904C21.8066 11.3166 21.7333 11.7269 21.5809 12.1104C21.4286 12.4939 21.2004 12.8428 20.91 13.136C20.6225 13.4322 20.2781 13.6673 19.8976 13.8272C19.517 13.9871 19.1081 14.0686 18.6953 14.0667H14.418C14.3452 14.067 14.2756 14.0961 14.2242 14.1475C14.1727 14.1989 14.1437 14.2686 14.1433 14.3413V17.772C14.1433 17.8316 14.1607 17.8853 14.1953 17.9333L21.45 28H26.7607L19.49 17.9067Z" fill="black"/>
</svg>
