<svg width="129" height="32" viewBox="0 0 129 32" fill="none" xmlns="http://www.w3.org/2000/svg">
<path fill-rule="evenodd" clip-rule="evenodd" d="M87.7174 1.7959H92.7664V29.966H87.7174V1.7959ZM128.607 13.6641V9.29262H123.385V3.59316H118.337V24.3718C118.337 26.281 118.817 27.736 119.764 28.6965C120.711 29.6577 122.186 30.145 124.149 30.145H128.607V25.7737H125.345C124.635 25.7737 124.127 25.6177 123.832 25.3097C123.561 25.0278 123.385 24.3158 123.385 23.496V13.6641H128.607ZM53.42 24.4829L58.6406 9.29203H63.9451L56.4087 29.9662H50.4314L42.895 9.29203H48.1994L53.42 24.4829ZM110.107 19.6489C110.107 20.9578 109.908 22.0964 109.517 23.0332C109.129 23.9649 108.574 24.6792 107.865 25.1557C107.157 25.6321 106.286 25.8738 105.276 25.8738C103.833 25.8738 102.743 25.3994 102.039 24.4642C101.327 23.5191 100.966 22.0866 100.966 20.207V9.29259H95.9172V20.765C95.9172 22.5514 96.14 24.0666 96.5812 25.2679C97.0225 26.4729 97.6288 27.4531 98.3826 28.1807C99.1363 28.9075 100.016 29.4324 100.998 29.7415C101.975 30.0489 103.026 30.2046 104.121 30.2046C105.7 30.2046 107.007 29.9183 108.004 29.3536C108.913 28.837 109.675 28.2331 110.272 27.5558L110.724 29.9659H115.156V9.29259H110.107V19.6489ZM79.999 10.3828C78.4078 9.50064 76.5184 9.0537 74.3838 9.0537C72.2754 9.0537 70.3929 9.50064 68.7886 10.3825C67.1824 11.2667 65.9203 12.5154 65.0373 14.0938C64.1557 15.6707 63.7086 17.5398 63.7086 19.6489C63.7086 21.7322 64.1557 23.5882 65.0373 25.1652C65.9198 26.743 67.1821 27.9914 68.7886 28.8754C70.3929 29.7574 72.2755 30.2044 74.3838 30.2044C76.5183 30.2044 78.4078 29.7574 79.999 28.8752C81.5919 27.9916 82.8473 26.7433 83.7301 25.1652C84.612 23.5873 85.0592 21.7313 85.0592 19.6489C85.0592 17.5406 84.612 15.6715 83.7301 14.0937C82.8467 12.5151 81.5916 11.2664 79.999 10.3828ZM77.3315 25.1545C76.5181 25.6842 75.5264 25.9529 74.3841 25.9529C73.268 25.9529 72.2827 25.6843 71.4556 25.1543C70.6271 24.6238 69.9774 23.8751 69.524 22.9285C69.0688 21.9811 68.8376 20.8779 68.8376 19.6489C68.8376 18.3947 69.0685 17.285 69.524 16.3505C69.9772 15.4167 70.6274 14.6677 71.4567 14.1239C72.2835 13.5805 73.2685 13.3052 74.384 13.3052C75.5258 13.3052 76.5169 13.5805 77.3306 14.1232C78.1466 14.6674 78.7904 15.4167 79.2446 16.3507C79.6996 17.2875 79.9304 18.3972 79.9304 19.649C79.9304 20.8751 79.6996 21.9787 79.2446 22.9285C78.7905 23.8752 78.1469 24.6241 77.3315 25.1545ZM5.24735 8.74818H0V29.9662H5.24735V8.74818ZM21.7028 9.9615C21.7028 5.45918 18.0364 1.7962 13.5295 1.7962H0V6.32746H12.8862C14.9258 6.32746 16.6153 7.92978 16.6527 9.89911C16.6713 10.8852 16.3012 11.8158 15.6106 12.5196C14.9197 13.2235 13.9966 13.6114 13.0113 13.6114H7.99143C7.81322 13.6114 7.66816 13.7562 7.66816 13.9345V17.9617C7.66816 18.0302 7.68932 18.0957 7.72912 18.1508L16.2461 29.9663H22.4806L13.9439 18.1185C18.243 17.9027 21.7028 14.2906 21.7028 9.9615ZM37.838 10.2625C36.3265 9.46026 34.5317 9.0537 32.5035 9.0537C30.4728 9.0537 28.6572 9.50092 27.1069 10.3834C25.5541 11.2667 24.3325 12.5157 23.4761 14.0948C22.6206 15.6704 22.187 17.5526 22.187 19.6893C22.187 21.7718 22.6273 23.6272 23.4962 25.2044C24.3669 26.7853 25.6229 28.0273 27.2285 28.8958C28.8312 29.7644 30.7536 30.2046 32.9418 30.2046C34.6778 30.2046 36.2368 29.8794 37.5754 29.2375C38.9143 28.5939 40.0073 27.7176 40.8244 26.6327C41.6005 25.6015 42.1241 24.4352 42.3802 23.1666L42.4078 23.0312H37.3866L37.3629 23.1126C37.0864 24.0588 36.55 24.8065 35.768 25.3354C34.9287 25.904 33.8978 26.1924 32.7035 26.1924C31.6912 26.1924 30.7769 25.9755 29.9864 25.5478C29.1996 25.1226 28.5845 24.5144 28.1584 23.7397C27.7307 22.9623 27.4872 22.0268 27.4352 20.965V20.799H42.6024L42.6194 20.7063C42.6723 20.4153 42.7063 20.1154 42.721 19.8139C42.7336 19.52 42.7408 19.2265 42.7408 18.9303C42.7138 16.9272 42.2661 15.1653 41.4103 13.693C40.5512 12.2191 39.3493 11.0648 37.838 10.2625ZM35.9981 14.1558C36.8608 14.8818 37.3975 15.9135 37.5943 17.2243H27.6096C27.7236 16.3738 28.0061 15.6372 28.4497 15.033C28.9151 14.3992 29.5112 13.9013 30.2219 13.5529C30.9334 13.2035 31.7145 13.0261 32.5433 13.0261C33.9443 13.026 35.1067 13.4062 35.9981 14.1558Z" fill="#191C1F"/>
</svg>
