<svg width="109" height="24" viewBox="0 0 109 24" fill="none" xmlns="http://www.w3.org/2000/svg">
<path fill-rule="evenodd" clip-rule="evenodd" d="M74.1029 0H78.3682V23.7984H74.1029V0ZM108.646 10.0264V6.33331H104.235V1.51835H99.9697V19.0723C99.9697 20.6853 100.376 21.9145 101.176 22.7259C101.975 23.538 103.222 23.9497 104.88 23.9497H108.646V20.2567H105.89C105.291 20.2567 104.861 20.1249 104.612 19.8647C104.383 19.6266 104.235 19.0251 104.235 18.3325V10.0264H108.646ZM45.1288 19.1663L49.5391 6.33281H54.0202L47.6536 23.7986H42.604L36.2373 6.33281H40.7185L45.1288 19.1663ZM93.0173 15.0824C93.0173 16.1882 92.8493 17.1501 92.5192 17.9415C92.1915 18.7286 91.722 19.3321 91.1235 19.7346C90.525 20.1371 89.7893 20.3413 88.9365 20.3413C87.717 20.3413 86.7967 19.9405 86.202 19.1504C85.6005 18.352 85.2952 17.1418 85.2952 15.5539V6.33328H81.03V16.0253C81.03 17.5345 81.2183 18.8145 81.591 19.8294C81.9638 20.8474 82.476 21.6754 83.1127 22.2901C83.7495 22.9042 84.4928 23.3477 85.3223 23.6087C86.1472 23.8685 87.0352 24 87.9607 24C89.2943 24 90.3982 23.7581 91.2405 23.2811C92.0085 22.8446 92.6527 22.3344 93.1568 21.7622L93.5385 23.7983H97.2825V6.33328H93.0173V15.0824ZM67.5825 7.25434C66.2383 6.50905 64.6421 6.13147 62.8388 6.13147C61.0577 6.13147 59.4673 6.50905 58.112 7.2541C56.7551 8.00107 55.6889 9.05595 54.943 10.3894C54.1982 11.7216 53.8205 13.3006 53.8205 15.0824C53.8205 16.8424 54.1982 18.4104 54.943 19.7426C55.6885 21.0756 56.7549 22.1302 58.112 22.8771C59.4673 23.6222 61.0577 23.9998 62.8388 23.9998C64.642 23.9998 66.2382 23.6222 67.5825 22.8769C68.9282 22.1304 69.9886 21.0758 70.7345 19.7426C71.4795 18.4096 71.8573 16.8416 71.8573 15.0824C71.8573 13.3013 71.4795 11.7223 70.7345 10.3893C69.9882 9.05573 68.9279 8.00078 67.5825 7.25434ZM65.329 19.7336C64.6418 20.1811 63.8041 20.4081 62.8391 20.4081C61.8961 20.4081 61.0638 20.1812 60.3651 19.7335C59.6652 19.2853 59.1163 18.6527 58.7333 17.8531C58.3487 17.0527 58.1534 16.1206 58.1534 15.0824C58.1534 14.0228 58.3485 13.0854 58.7333 12.2959C59.1161 11.507 59.6654 10.8743 60.366 10.4148C61.0645 9.9558 61.8966 9.72315 62.839 9.72315C63.8036 9.72315 64.6409 9.9558 65.3282 10.4143C66.0175 10.874 66.5614 11.507 66.9452 12.2961C67.3295 13.0875 67.5245 14.025 67.5245 15.0825C67.5245 16.1183 67.3295 17.0506 66.9452 17.8531C66.5615 18.6529 66.0179 19.2855 65.329 19.7336ZM4.43291 5.87336H0V23.7986H4.43291V5.87336ZM18.3344 6.89839C18.3344 3.09478 15.237 0.00025749 11.4296 0.00025749H0V3.82832H10.8862C12.6092 3.82832 14.0365 5.18197 14.0681 6.84569C14.0838 7.67872 13.7711 8.46495 13.1877 9.05947C12.604 9.65415 11.8242 9.9819 10.9918 9.9819H6.75109C6.60054 9.9819 6.478 10.1042 6.478 10.2548V13.6571C6.478 13.715 6.49587 13.7702 6.52949 13.8168L13.7246 23.7987H18.9914L11.7796 13.7895C15.4115 13.6072 18.3344 10.5556 18.3344 6.89839ZM31.9652 7.1527C30.6883 6.47494 29.1721 6.13147 27.4587 6.13147C25.7431 6.13147 24.2093 6.50929 22.8997 7.25482C21.5879 8.00107 20.5558 9.05618 19.8324 10.3903C19.1097 11.7214 18.7434 13.3114 18.7434 15.1165C18.7434 16.8758 19.1153 18.4433 19.8493 19.7758C20.5849 21.1113 21.646 22.1605 23.0024 22.8943C24.3563 23.6281 25.9804 24 27.829 24C29.2955 24 30.6125 23.7253 31.7434 23.183C32.8745 22.6393 33.7979 21.899 34.4881 20.9824C35.1437 20.1112 35.5861 19.126 35.8024 18.0542L35.8258 17.9398H31.5839L31.5638 18.0086C31.3303 18.808 30.8771 19.4396 30.2165 19.8864C29.5075 20.3668 28.6366 20.6105 27.6276 20.6105C26.7724 20.6105 26.0001 20.4272 25.3322 20.0659C24.6676 19.7066 24.1479 19.1929 23.788 18.5383C23.4266 17.8816 23.221 17.0913 23.177 16.1943V16.0541H35.9902L36.0045 15.9757C36.0492 15.7299 36.0779 15.4766 36.0904 15.2218C36.1009 14.9735 36.1071 14.7256 36.1071 14.4753C36.0842 12.7831 35.706 11.2946 34.9831 10.0508C34.2573 8.8056 33.242 7.83045 31.9652 7.1527ZM30.4109 10.4418C31.1397 11.0552 31.5931 11.9267 31.7593 13.0341H23.3243C23.4207 12.3156 23.6593 11.6933 24.034 11.1829C24.4272 10.6474 24.9308 10.2268 25.5312 9.93248C26.1322 9.63728 26.7922 9.48742 27.4923 9.48742C28.6759 9.48735 29.6579 9.8085 30.4109 10.4418Z" fill="white"/>
</svg>
